<mxfile host="app.diagrams.net" agent="Mozilla/5.0 (X11; Linux x86_64; rv:144.0) Gecko/20100101 Firefox/144.0" version="28.2.8">
  <diagram name="Page-1" id="ZLazSinGCe12IRev065t">
    <mxGraphModel dx="544" dy="306" grid="1" gridSize="10" guides="1" tooltips="1" connect="1" arrows="1" fold="1" page="1" pageScale="1" pageWidth="827" pageHeight="1169" math="0" shadow="0">
      <root>
        <mxCell id="0" />
        <mxCell id="1" parent="0" />
        <mxCell id="XePtPWQKEqZGx3z2ySZ3-1" value="000" style="ellipse;whiteSpace=wrap;html=1;aspect=fixed;" vertex="1" parent="1">
          <mxGeometry x="260" y="120" width="40" height="40" as="geometry" />
        </mxCell>
        <mxCell id="XePtPWQKEqZGx3z2ySZ3-4" value="011" style="ellipse;whiteSpace=wrap;html=1;aspect=fixed;" vertex="1" parent="1">
          <mxGeometry x="360" y="220" width="40" height="40" as="geometry" />
        </mxCell>
        <mxCell id="XePtPWQKEqZGx3z2ySZ3-5" value="110" style="ellipse;whiteSpace=wrap;html=1;aspect=fixed;" vertex="1" parent="1">
          <mxGeometry x="260" y="320" width="40" height="40" as="geometry" />
        </mxCell>
        <mxCell id="XePtPWQKEqZGx3z2ySZ3-6" value="101" style="ellipse;whiteSpace=wrap;html=1;aspect=fixed;" vertex="1" parent="1">
          <mxGeometry x="160" y="220" width="40" height="40" as="geometry" />
        </mxCell>
        <mxCell id="XePtPWQKEqZGx3z2ySZ3-7" value="001" style="ellipse;whiteSpace=wrap;html=1;aspect=fixed;" vertex="1" parent="1">
          <mxGeometry x="330" y="150" width="40" height="40" as="geometry" />
        </mxCell>
        <mxCell id="XePtPWQKEqZGx3z2ySZ3-8" value="010" style="ellipse;whiteSpace=wrap;html=1;aspect=fixed;" vertex="1" parent="1">
          <mxGeometry x="330" y="290" width="40" height="40" as="geometry" />
        </mxCell>
        <mxCell id="XePtPWQKEqZGx3z2ySZ3-9" value="111" style="ellipse;whiteSpace=wrap;html=1;aspect=fixed;" vertex="1" parent="1">
          <mxGeometry x="190" y="290" width="40" height="40" as="geometry" />
        </mxCell>
        <mxCell id="XePtPWQKEqZGx3z2ySZ3-10" value="100" style="ellipse;whiteSpace=wrap;html=1;aspect=fixed;" vertex="1" parent="1">
          <mxGeometry x="190" y="150" width="40" height="40" as="geometry" />
        </mxCell>
        <mxCell id="XePtPWQKEqZGx3z2ySZ3-16" value="" style="edgeStyle=none;orthogonalLoop=1;jettySize=auto;html=1;rounded=0;curved=1;exitX=1;exitY=0.5;exitDx=0;exitDy=0;" edge="1" parent="1" source="XePtPWQKEqZGx3z2ySZ3-1" target="XePtPWQKEqZGx3z2ySZ3-7">
          <mxGeometry width="80" relative="1" as="geometry">
            <mxPoint x="320" y="170" as="sourcePoint" />
            <mxPoint x="330" y="140" as="targetPoint" />
            <Array as="points">
              <mxPoint x="320" y="140" />
            </Array>
          </mxGeometry>
        </mxCell>
        <mxCell id="XePtPWQKEqZGx3z2ySZ3-17" value="" style="edgeStyle=none;orthogonalLoop=1;jettySize=auto;html=1;rounded=0;curved=1;exitX=1;exitY=1;exitDx=0;exitDy=0;entryX=0.5;entryY=0;entryDx=0;entryDy=0;" edge="1" parent="1" source="XePtPWQKEqZGx3z2ySZ3-7" target="XePtPWQKEqZGx3z2ySZ3-4">
          <mxGeometry width="80" relative="1" as="geometry">
            <mxPoint x="380" y="190" as="sourcePoint" />
            <mxPoint x="416" y="206" as="targetPoint" />
            <Array as="points">
              <mxPoint x="381" y="196" />
            </Array>
          </mxGeometry>
        </mxCell>
        <mxCell id="XePtPWQKEqZGx3z2ySZ3-19" value="" style="edgeStyle=none;orthogonalLoop=1;jettySize=auto;html=1;rounded=0;curved=1;exitX=1;exitY=1;exitDx=0;exitDy=0;" edge="1" parent="1" target="XePtPWQKEqZGx3z2ySZ3-8">
          <mxGeometry width="80" relative="1" as="geometry">
            <mxPoint x="380" y="260" as="sourcePoint" />
            <mxPoint x="396" y="296" as="targetPoint" />
            <Array as="points">
              <mxPoint x="380" y="280" />
            </Array>
          </mxGeometry>
        </mxCell>
        <mxCell id="XePtPWQKEqZGx3z2ySZ3-20" value="" style="edgeStyle=none;orthogonalLoop=1;jettySize=auto;html=1;rounded=0;curved=1;entryX=1;entryY=0.5;entryDx=0;entryDy=0;" edge="1" parent="1" source="XePtPWQKEqZGx3z2ySZ3-8" target="XePtPWQKEqZGx3z2ySZ3-5">
          <mxGeometry width="80" relative="1" as="geometry">
            <mxPoint x="310" y="340" as="sourcePoint" />
            <mxPoint x="326" y="376" as="targetPoint" />
            <Array as="points">
              <mxPoint x="326" y="340" />
            </Array>
          </mxGeometry>
        </mxCell>
        <mxCell id="XePtPWQKEqZGx3z2ySZ3-27" value="" style="group;flipV=1;flipH=1;" vertex="1" connectable="0" parent="1">
          <mxGeometry x="180" y="140" width="81" height="200" as="geometry" />
        </mxCell>
        <mxCell id="XePtPWQKEqZGx3z2ySZ3-22" value="" style="edgeStyle=none;orthogonalLoop=1;jettySize=auto;html=1;rounded=0;curved=1;exitX=1;exitY=0.5;exitDx=0;exitDy=0;" edge="1" parent="XePtPWQKEqZGx3z2ySZ3-27">
          <mxGeometry width="80" relative="1" as="geometry">
            <mxPoint x="81" y="200" as="sourcePoint" />
            <mxPoint x="45" y="184" as="targetPoint" />
            <Array as="points">
              <mxPoint x="61" y="200" />
            </Array>
          </mxGeometry>
        </mxCell>
        <mxCell id="XePtPWQKEqZGx3z2ySZ3-23" value="" style="edgeStyle=none;orthogonalLoop=1;jettySize=auto;html=1;rounded=0;curved=1;exitX=1;exitY=1;exitDx=0;exitDy=0;entryX=0.5;entryY=0;entryDx=0;entryDy=0;" edge="1" parent="XePtPWQKEqZGx3z2ySZ3-27">
          <mxGeometry width="80" relative="1" as="geometry">
            <mxPoint x="17" y="156" as="sourcePoint" />
            <mxPoint x="1" y="120" as="targetPoint" />
            <Array as="points">
              <mxPoint y="144" />
            </Array>
          </mxGeometry>
        </mxCell>
        <mxCell id="XePtPWQKEqZGx3z2ySZ3-24" value="" style="edgeStyle=none;orthogonalLoop=1;jettySize=auto;html=1;rounded=0;curved=1;exitX=1;exitY=1;exitDx=0;exitDy=0;" edge="1" parent="XePtPWQKEqZGx3z2ySZ3-27">
          <mxGeometry width="80" relative="1" as="geometry">
            <mxPoint x="1" y="80" as="sourcePoint" />
            <mxPoint x="17" y="44" as="targetPoint" />
            <Array as="points">
              <mxPoint x="1" y="60" />
            </Array>
          </mxGeometry>
        </mxCell>
        <mxCell id="XePtPWQKEqZGx3z2ySZ3-25" value="" style="edgeStyle=none;orthogonalLoop=1;jettySize=auto;html=1;rounded=0;curved=1;entryX=1;entryY=0.5;entryDx=0;entryDy=0;" edge="1" parent="XePtPWQKEqZGx3z2ySZ3-27">
          <mxGeometry width="80" relative="1" as="geometry">
            <mxPoint x="43" y="14" as="sourcePoint" />
            <mxPoint x="81" as="targetPoint" />
            <Array as="points">
              <mxPoint x="55" />
            </Array>
          </mxGeometry>
        </mxCell>
      </root>
    </mxGraphModel>
  </diagram>
</mxfile>
